<svg id="svg" version="1.1" xmlns="http://www.w3.org/2000/svg" xmlns:xlink="http://www.w3.org/1999/xlink" width="400" height="433.66533864541833" viewBox="0, 0, 400,433.66533864541833"><g id="svgg"><path id="path0" d="M195.120 0.354 C 193.032 0.538,189.779 0.817,187.890 0.975 C 186.001 1.134,183.029 1.383,181.286 1.529 C 179.542 1.675,177.346 1.924,176.405 2.082 C 174.724 2.365,170.772 3.159,170.258 3.318 C 170.114 3.362,167.873 3.912,165.278 4.540 L 160.560 5.682 160.429 22.169 C 160.257 43.755,160.459 52.767,161.137 53.735 C 161.625 54.432,170.017 63.192,174.333 67.509 C 180.071 73.249,184.747 77.361,185.536 77.361 C 185.588 77.361,185.630 65.779,185.630 51.622 L 185.630 25.883 190.194 25.800 C 192.704 25.755,196.449 25.610,198.515 25.478 C 201.573 25.283,202.698 25.281,204.570 25.467 C 205.834 25.593,208.556 25.741,210.619 25.797 L 214.370 25.899 214.370 68.808 C 214.370 110.588,214.361 111.736,214.027 112.389 C 213.597 113.229,212.479 114.507,210.845 116.024 C 210.149 116.671,204.944 121.847,199.277 127.526 C 190.388 136.436,187.485 139.245,185.942 140.429 C 185.635 140.665,185.621 140.071,185.637 126.834 C 185.650 115.715,185.607 112.906,185.416 112.556 L 185.178 112.121 172.887 117.951 C 164.208 122.067,160.623 123.851,160.687 124.023 C 160.737 124.156,160.737 125.811,160.687 127.700 C 160.637 129.589,160.596 165.327,160.596 207.118 L 160.596 283.101 162.585 283.593 C 170.370 285.521,172.467 285.958,178.671 286.948 C 179.566 287.091,180.786 287.289,181.383 287.389 C 183.930 287.817,184.921 287.629,185.491 286.610 C 185.752 286.143,185.732 270.771,185.422 235.608 C 185.232 213.915,185.316 189.993,185.615 181.112 C 185.775 176.375,185.873 176.049,187.599 174.520 C 188.156 174.026,189.833 172.359,191.324 170.817 C 196.617 165.343,199.479 162.675,200.061 162.675 C 200.789 162.675,209.669 171.119,212.226 174.243 C 212.755 174.889,213.237 175.459,213.297 175.508 C 213.358 175.558,213.623 175.972,213.888 176.428 L 214.370 177.257 214.370 232.134 C 214.370 262.316,214.431 287.047,214.505 287.092 C 214.857 287.306,222.115 286.821,224.763 286.407 C 228.486 285.826,229.076 285.701,234.748 284.309 L 239.491 283.145 239.518 244.916 C 239.533 223.891,239.595 197.578,239.655 186.444 L 239.765 166.200 228.739 155.219 L 217.714 144.238 218.435 143.651 C 223.914 139.192,239.064 123.678,239.441 122.140 C 239.520 121.818,239.561 95.476,239.533 63.602 L 239.482 5.649 238.268 5.360 C 236.091 4.842,233.110 4.143,231.541 3.782 C 230.696 3.588,229.679 3.347,229.282 3.246 C 224.206 1.964,216.378 0.925,211.658 0.907 C 210.111 0.901,207.927 0.748,206.326 0.534 C 202.435 0.012,199.547 -0.034,195.120 0.354 M22.594 322.201 C 18.468 327.525,15.066 331.956,15.033 332.047 C 14.998 332.147,28.700 332.233,49.557 332.264 L 84.139 332.316 85.618 332.713 C 89.730 333.819,92.103 335.992,92.734 339.230 C 93.591 343.628,90.766 347.053,84.979 348.632 L 83.235 349.108 49.119 349.163 L 15.002 349.218 15.002 368.373 L 15.002 387.528 26.661 387.528 L 38.319 387.528 38.319 377.677 L 38.319 367.826 56.091 367.826 L 73.864 367.826 74.838 369.028 C 75.375 369.689,75.898 370.319,76.001 370.429 C 76.104 370.538,77.001 371.604,77.994 372.797 C 78.987 373.990,80.562 375.861,81.494 376.954 C 82.425 378.048,83.361 379.147,83.573 379.396 C 83.785 379.646,85.376 381.545,87.108 383.617 C 88.841 385.688,90.345 387.417,90.452 387.457 C 90.559 387.498,97.601 387.510,106.100 387.485 L 121.554 387.438 120.108 385.913 C 119.313 385.074,117.849 383.529,116.855 382.480 C 115.861 381.431,114.391 379.881,113.588 379.035 C 112.785 378.189,111.445 376.765,110.609 375.870 C 107.554 372.597,100.723 365.863,99.094 364.518 C 97.485 363.189,97.440 363.131,97.919 363.033 C 108.411 360.888,116.111 352.049,116.733 341.437 C 117.633 326.101,108.424 316.509,89.833 313.417 C 85.243 312.654,85.092 312.650,57.027 312.585 L 30.095 312.522 22.594 322.201 M129.959 350.023 L 129.959 387.528 141.618 387.528 L 153.276 387.528 153.276 350.023 L 153.276 312.517 141.618 312.517 L 129.959 312.517 129.959 350.023 M76.862 406.652 C 75.922 407.027,74.995 407.885,74.539 408.803 C 74.217 409.451,74.195 410.151,74.147 421.464 L 74.095 433.439 77.897 433.439 L 81.699 433.439 81.699 425.741 L 81.699 418.043 82.286 418.534 C 82.902 419.048,84.989 420.905,86.852 422.594 C 87.454 423.141,88.632 424.198,89.468 424.944 C 90.304 425.689,91.117 426.421,91.276 426.570 C 91.434 426.719,92.654 427.817,93.987 429.010 C 95.319 430.203,96.618 431.372,96.872 431.607 C 99.698 434.225,102.244 434.588,104.268 432.661 C 105.704 431.294,105.642 431.905,105.702 418.662 L 105.756 406.869 101.952 406.869 L 98.147 406.869 98.147 414.566 L 98.147 422.263 97.368 421.570 C 94.508 419.027,90.089 415.081,90.014 415.001 C 89.964 414.949,89.110 414.182,88.116 413.296 C 84.023 409.650,83.392 409.086,82.373 408.164 C 80.456 406.429,78.660 405.937,76.862 406.652 M155.745 406.685 C 153.760 407.460,154.013 407.148,144.294 420.835 C 143.816 421.508,143.093 422.524,142.688 423.094 C 140.081 426.757,136.108 432.357,135.765 432.851 L 135.357 433.439 140.301 433.439 L 145.246 433.439 147.227 430.629 C 148.317 429.083,149.965 426.744,150.888 425.432 C 155.117 419.418,157.526 416.087,157.643 416.087 C 157.713 416.087,158.438 417.083,159.254 418.301 C 161.612 421.822,163.782 424.979,164.334 425.693 C 164.615 426.055,164.844 426.380,164.844 426.416 C 164.844 426.451,162.329 426.452,159.254 426.417 L 153.664 426.355 153.218 427.050 C 152.833 427.650,151.880 428.976,149.297 432.504 C 148.983 432.934,148.760 433.321,148.802 433.363 C 148.845 433.406,155.809 433.420,164.277 433.395 L 179.674 433.348 178.805 432.083 C 178.326 431.387,177.206 429.765,176.315 428.479 C 174.304 425.577,171.871 422.059,170.555 420.154 C 170.006 419.358,168.907 417.772,168.112 416.629 C 167.317 415.486,165.870 413.371,164.897 411.930 C 161.412 406.771,159.025 405.404,155.745 406.685 M237.086 406.605 C 235.508 407.184,234.420 408.568,233.805 410.778 C 233.526 411.783,232.512 415.261,231.838 417.533 C 231.587 418.378,231.167 419.801,230.906 420.696 C 230.644 421.591,230.226 423.014,229.976 423.859 C 229.016 427.110,228.245 429.773,227.987 430.728 C 227.840 431.274,227.603 432.070,227.461 432.496 C 227.319 432.922,227.203 433.308,227.203 433.355 C 227.203 433.401,229.031 433.439,231.265 433.439 L 235.327 433.439 235.598 432.490 C 236.617 428.930,238.909 420.361,239.248 418.843 C 239.655 417.019,239.623 417.019,240.497 418.837 C 240.890 419.654,241.584 421.016,242.039 421.864 C 242.495 422.713,243.422 424.465,244.100 425.757 C 248.341 433.842,248.425 433.926,252.097 433.766 C 253.597 433.701,253.843 433.639,254.535 433.152 C 255.621 432.390,255.755 432.173,259.024 425.938 C 259.754 424.546,260.740 422.675,261.216 421.780 C 261.692 420.886,262.380 419.523,262.745 418.753 C 263.541 417.076,263.592 417.060,263.858 418.391 C 264.080 419.504,264.591 421.456,266.565 428.739 L 267.814 433.348 271.996 433.397 C 275.311 433.435,276.161 433.398,276.099 433.216 C 275.998 432.922,274.543 427.821,273.494 424.085 C 273.306 423.414,272.686 421.279,272.117 419.340 C 271.548 417.402,271.021 415.572,270.947 415.273 C 269.428 409.232,268.649 407.670,266.697 406.754 C 263.951 405.465,261.511 406.723,259.460 410.484 C 258.891 411.527,258.161 412.829,257.839 413.376 C 257.517 413.922,257.052 414.736,256.806 415.183 C 256.560 415.630,255.671 417.216,254.831 418.708 C 253.990 420.199,252.991 422.029,252.610 422.775 C 251.721 424.516,251.702 424.532,251.411 423.824 C 251.111 423.093,248.715 418.690,246.364 414.550 C 245.799 413.556,244.818 411.808,244.183 410.664 C 242.030 406.788,239.903 405.572,237.086 406.605 M290.285 406.686 C 280.361 408.007,275.961 412.884,276.724 421.718 C 277.447 430.079,283.440 433.800,296.185 433.800 C 309.074 433.800,314.921 429.892,315.518 420.877 C 315.926 414.732,312.935 409.967,307.415 407.967 C 303.179 406.433,296.140 405.906,290.285 406.686 M4.321 408.078 C 3.788 408.755,2.598 410.257,1.676 411.416 C 0.754 412.575,0.000 413.568,0.000 413.623 C 0.000 413.678,5.592 413.746,12.427 413.775 C 24.671 413.827,24.865 413.833,25.686 414.213 C 28.249 415.398,28.077 418.321,25.385 419.329 C 24.414 419.692,24.072 419.702,12.194 419.702 L 0.000 419.702 0.000 426.570 L 0.000 433.439 4.157 433.439 L 8.315 433.439 8.315 429.914 L 8.315 426.390 14.596 426.404 L 20.877 426.418 23.769 429.925 L 26.661 433.431 32.253 433.435 L 37.844 433.439 37.314 432.855 C 35.349 430.696,33.975 429.260,31.879 427.175 C 29.582 424.892,29.357 424.582,29.989 424.582 C 31.187 424.581,33.788 422.632,34.764 421.004 C 38.160 415.337,35.402 409.503,28.366 407.472 L 26.661 406.979 15.975 406.914 L 5.289 406.848 4.321 408.078 M40.669 420.154 L 40.669 433.439 53.457 433.428 L 66.245 433.418 68.762 430.124 C 70.147 428.313,71.312 426.731,71.353 426.610 C 71.410 426.438,68.954 426.390,60.205 426.390 L 48.983 426.390 48.983 424.674 L 48.983 422.959 57.153 422.912 L 65.322 422.865 67.661 419.883 L 69.999 416.900 59.491 416.853 L 48.983 416.807 48.983 415.272 L 48.983 413.737 57.550 413.737 L 66.117 413.737 67.900 411.432 C 68.881 410.165,69.926 408.813,70.224 408.427 C 70.521 408.042,70.913 407.534,71.095 407.298 L 71.426 406.869 56.048 406.869 L 40.669 406.869 40.669 420.154 M110.544 410.258 L 107.913 413.647 114.146 413.694 L 120.380 413.742 120.380 423.590 L 120.380 433.439 124.537 433.439 L 128.694 433.439 128.694 423.588 L 128.694 413.737 133.447 413.737 L 138.200 413.737 139.483 412.065 C 140.189 411.146,141.385 409.600,142.141 408.631 L 143.514 406.869 128.345 406.869 L 113.175 406.869 110.544 410.258 M182.558 420.154 L 182.558 433.439 194.265 433.439 L 205.973 433.439 206.963 432.148 C 207.507 431.439,208.441 430.239,209.038 429.484 C 209.634 428.728,210.387 427.743,210.710 427.295 L 211.298 426.480 201.085 426.433 L 190.872 426.387 190.872 416.628 L 190.872 406.869 186.715 406.869 L 182.558 406.869 182.558 420.154 M322.319 410.250 L 319.602 413.647 331.862 413.737 C 346.004 413.841,345.142 413.729,345.142 415.466 C 345.142 416.262,345.085 416.382,344.528 416.757 L 343.914 417.171 331.740 417.171 L 319.566 417.171 319.566 425.314 L 319.566 433.456 332.987 433.393 C 347.695 433.324,347.576 433.332,349.971 432.186 C 354.746 429.901,355.059 421.926,350.451 419.989 L 349.891 419.753 350.672 419.229 C 353.844 417.099,354.094 411.947,351.155 409.304 C 350.059 408.320,349.700 408.121,347.823 407.462 L 346.408 406.965 335.722 406.909 L 325.036 406.853 322.319 410.250 M357.885 420.154 L 357.885 433.439 362.042 433.439 L 366.200 433.439 366.200 420.154 L 366.200 406.869 362.042 406.869 L 357.885 406.869 357.885 420.154 M371.261 420.154 L 371.261 433.439 382.987 433.439 L 394.712 433.439 397.311 430.082 C 398.740 428.236,399.937 426.650,399.970 426.557 C 400.007 426.455,396.023 426.390,389.803 426.390 L 379.575 426.390 379.575 416.629 L 379.575 406.869 375.418 406.869 L 371.261 406.869 371.261 420.154 M302.466 413.814 C 306.041 414.688,307.199 416.270,307.169 420.244 C 307.131 425.420,304.758 426.842,296.159 426.841 C 287.965 426.840,285.583 425.676,285.042 421.412 C 284.409 416.417,286.489 413.953,291.731 413.489 C 293.925 413.295,301.249 413.517,302.466 413.814 M344.510 423.272 C 345.658 423.845,345.658 425.575,344.510 426.156 C 344.166 426.330,342.127 426.385,335.969 426.387 L 327.881 426.390 327.881 424.672 L 327.881 422.955 335.879 422.956 C 343.131 422.956,343.936 422.985,344.510 423.272 " stroke="none" fill="#04a3eb" fill-rule="evenodd"></path><path id="path1" d="M263.534 29.914 C 263.534 43.899,263.547 44.465,263.865 44.465 C 264.783 44.465,270.024 47.645,272.388 49.637 C 272.638 49.848,273.656 50.701,274.650 51.534 C 282.004 57.691,291.820 68.404,297.818 76.819 C 300.396 80.435,300.758 81.050,305.319 89.548 C 310.739 99.650,313.418 107.192,316.234 120.289 C 320.910 142.031,319.711 161.226,312.306 183.190 C 308.946 193.157,302.401 205.980,296.670 213.827 C 295.247 215.775,294.191 217.073,293.397 217.850 L 292.544 218.684 266.245 192.509 L 239.946 166.334 239.855 184.251 L 239.765 202.169 242.657 205.059 C 244.248 206.648,247.501 209.861,249.887 212.199 C 264.818 226.826,264.444 226.444,264.975 227.627 C 265.956 229.814,266.320 232.707,266.173 237.144 C 266.115 238.884,266.018 247.404,265.958 256.078 L 265.849 271.848 266.285 271.848 C 267.631 271.848,269.711 270.896,273.113 268.720 C 274.455 267.862,275.960 266.911,276.457 266.607 C 284.820 261.499,294.860 253.540,302.221 246.186 C 306.117 242.293,306.544 241.813,310.184 237.231 C 316.264 229.577,318.817 226.161,321.595 221.961 C 325.056 216.730,327.798 211.648,330.130 206.146 C 330.593 205.052,331.045 203.995,331.135 203.796 C 331.224 203.597,331.630 202.621,332.038 201.627 C 332.446 200.633,332.854 199.657,332.946 199.458 C 335.119 194.741,338.549 185.224,339.701 180.711 C 341.583 173.344,342.740 165.779,343.622 155.084 C 346.023 125.948,339.256 96.218,324.779 72.300 C 315.898 57.627,308.313 48.222,296.783 37.584 C 289.975 31.304,279.200 23.136,277.722 23.136 C 277.687 23.136,276.819 22.661,275.793 22.081 C 274.767 21.501,273.357 20.716,272.662 20.336 C 271.966 19.957,270.136 18.940,268.595 18.076 C 264.233 15.633,263.741 15.364,263.634 15.364 C 263.579 15.364,263.534 21.911,263.534 29.914 M132.309 17.249 C 126.810 18.779,116.825 25.892,102.485 38.493 C 101.740 39.148,100.435 40.266,99.587 40.977 C 97.119 43.043,93.492 46.924,89.989 51.243 C 84.510 58.000,78.187 67.047,75.460 72.029 C 75.080 72.725,74.616 73.566,74.431 73.899 C 74.246 74.232,73.722 75.198,73.267 76.046 C 72.812 76.895,71.758 78.852,70.924 80.397 C 70.090 81.941,69.408 83.230,69.408 83.261 C 69.408 83.292,69.174 83.827,68.889 84.451 C 68.603 85.075,68.063 86.317,67.689 87.212 C 65.345 92.820,63.698 97.437,61.724 103.931 C 61.219 105.594,60.394 108.797,59.839 111.252 C 59.525 112.643,59.190 114.108,59.096 114.505 C 58.705 116.156,58.057 119.842,57.300 124.718 C 57.118 125.884,56.718 129.576,56.378 133.213 C 56.080 136.408,55.965 148.474,56.194 152.553 C 57.472 175.288,64.167 197.441,75.776 217.352 C 76.472 218.545,77.225 219.806,77.451 220.154 C 77.676 220.502,78.246 221.396,78.717 222.142 C 86.370 234.244,93.647 242.743,103.951 251.615 C 112.857 259.283,116.401 261.974,122.261 265.522 C 123.328 266.168,125.796 267.740,127.746 269.016 C 132.006 271.803,135.273 273.475,136.461 273.475 C 136.587 273.475,136.647 268.805,136.647 258.937 L 136.647 244.399 136.240 244.284 C 131.907 243.066,121.913 234.919,113.958 226.118 C 108.457 220.034,104.757 215.510,101.834 211.297 C 97.211 204.634,91.905 194.286,88.208 184.727 C 86.533 180.393,84.803 174.657,83.876 170.357 C 83.661 169.363,83.412 168.224,83.323 167.826 C 81.647 160.409,80.652 142.914,81.434 134.616 C 81.823 130.489,82.767 123.943,83.319 121.554 C 83.411 121.157,83.660 120.018,83.874 119.024 C 84.347 116.815,85.596 111.731,85.938 110.619 C 86.076 110.172,86.367 109.196,86.585 108.450 C 88.556 101.716,90.895 96.109,93.963 90.762 C 94.773 89.350,95.436 88.159,95.436 88.115 C 95.436 88.072,95.830 87.363,96.313 86.540 C 96.795 85.716,97.496 84.474,97.872 83.778 C 99.206 81.308,100.033 79.965,101.046 78.626 C 101.610 77.881,102.705 76.335,103.480 75.192 C 106.091 71.342,107.361 69.981,107.955 70.397 C 109.214 71.279,115.046 77.031,135.867 97.931 C 156.272 118.413,160.218 122.496,160.542 123.470 C 160.607 123.665,162.247 122.925,171.893 118.346 C 172.937 117.851,174.361 117.180,175.056 116.856 C 176.450 116.207,178.530 115.221,182.106 113.516 C 183.398 112.899,184.642 112.322,184.869 112.232 C 185.513 111.978,185.665 112.143,173.666 100.115 C 146.892 73.278,134.572 60.721,134.437 60.131 C 133.966 58.072,133.791 21.906,134.233 17.939 L 134.339 16.991 133.731 17.007 C 133.396 17.016,132.756 17.125,132.309 17.249 M178.397 311.438 C 173.199 311.916,169.396 315.153,167.893 320.380 L 167.477 321.826 167.422 354.677 L 167.367 387.528 177.944 387.528 L 188.521 387.528 188.567 365.657 L 188.613 343.786 190.059 345.079 C 190.854 345.791,192.155 346.959,192.951 347.675 C 193.746 348.391,195.332 349.817,196.475 350.842 C 197.619 351.868,199.245 353.329,200.090 354.089 C 200.935 354.850,202.562 356.311,203.705 357.337 C 204.849 358.362,206.473 359.820,207.314 360.577 C 209.929 362.928,210.808 363.715,212.379 365.115 C 213.216 365.861,214.840 367.318,215.988 368.352 C 217.899 370.075,219.417 371.438,222.144 373.882 C 224.127 375.658,226.406 377.706,228.382 379.485 C 229.486 380.479,231.075 381.902,231.913 382.648 C 232.751 383.394,233.844 384.374,234.341 384.827 C 241.767 391.585,252.313 389.559,255.506 380.760 C 256.503 378.012,256.484 378.713,256.484 344.262 L 256.484 312.517 245.820 312.517 L 235.156 312.517 235.156 334.403 C 235.156 346.950,235.088 356.263,234.997 356.228 C 234.877 356.183,229.619 351.513,228.211 350.202 C 228.104 350.102,227.203 349.296,226.209 348.410 C 225.215 347.524,223.710 346.176,222.865 345.415 C 222.020 344.653,220.393 343.191,219.250 342.167 C 218.107 341.142,216.845 340.010,216.447 339.650 C 216.048 339.291,214.950 338.305,214.007 337.460 C 213.063 336.615,212.250 335.883,212.201 335.834 C 212.151 335.784,211.338 335.052,210.393 334.207 C 209.449 333.362,208.635 332.627,208.586 332.575 C 208.536 332.522,206.584 330.776,204.248 328.694 C 201.911 326.612,199.959 324.866,199.910 324.813 C 199.860 324.761,199.047 324.026,198.102 323.181 C 197.158 322.336,196.344 321.604,196.295 321.554 C 196.245 321.505,195.432 320.773,194.489 319.928 C 193.545 319.083,192.447 318.097,192.049 317.738 C 191.650 317.378,190.714 316.534,189.968 315.862 C 185.804 312.107,182.958 311.019,178.397 311.438 M317.216 311.443 C 310.760 311.623,304.432 312.289,299.955 313.260 C 287.772 315.900,280.861 319.599,274.652 326.803 C 267.042 335.633,265.309 355.133,271.047 367.388 C 277.878 381.980,294.077 388.691,322.458 388.688 C 359.825 388.685,377.231 376.431,377.225 350.132 C 377.220 329.733,367.281 318.306,345.229 313.349 C 338.544 311.846,328.131 311.137,317.216 311.443 M335.653 331.482 C 349.514 333.128,354.009 337.697,353.978 350.113 C 353.950 361.624,350.053 366.185,338.455 368.277 C 331.332 369.563,313.446 369.501,305.829 368.165 C 294.996 366.265,290.827 361.223,290.827 350.023 C 290.827 336.664,296.637 331.959,314.234 331.065 C 318.526 330.847,332.611 331.121,335.653 331.482 " stroke="none" fill="#f3841c" fill-rule="evenodd"></path><path id="path2" d="M239.762 184.184 C 239.762 194.076,239.783 198.122,239.810 193.177 C 239.837 188.231,239.837 180.138,239.810 175.192 C 239.783 170.246,239.762 174.293,239.762 184.184 " stroke="none" fill="#c48c43" fill-rule="evenodd"></path><path id="path3" d="" stroke="none" fill="#7e947c" fill-rule="evenodd"></path><path id="path4" d="" stroke="none" fill="#649494" fill-rule="evenodd"></path></g></svg>